<?xml version="1.0" standalone="no"?>
<!DOCTYPE svg PUBLIC "-//W3C//DTD SVG 20010904//EN"
 "http://www.w3.org/TR/2001/REC-SVG-20010904/DTD/svg10.dtd">
<svg version="1.0" xmlns="http://www.w3.org/2000/svg"
 width="202.000000pt" height="202.000000pt" viewBox="0 0 202.000000 202.000000"
 preserveAspectRatio="xMidYMid meet">

<g transform="translate(0.000000,202.000000) scale(0.100000,-0.100000)"
fill="#000000" stroke="none">
<path d="M865 2003 c-81 -12 -198 -48 -272 -83 -217 -102 -379 -261 -483 -475
-77 -158 -94 -238 -94 -435 0 -141 3 -178 23 -250 77 -288 269 -521 536 -650
154 -75 339 -117 380 -87 18 14 20 29 23 154 4 170 3 173 -109 196 -235 48
-432 239 -494 478 -22 84 -22 234 0 318 60 231 245 416 475 476 82 21 238 21
320 0 238 -62 429 -259 477 -494 23 -112 26 -113 196 -109 187 4 188 6 142
198 -87 361 -367 647 -725 741 -64 16 -119 23 -225 25 -77 1 -153 0 -170 -3z"/>
<path d="M990 781 c-6 -12 -10 -94 -10 -196 0 -102 4 -184 10 -196 10 -18 23
-19 208 -19 141 0 201 3 210 12 13 13 18 371 6 402 -5 14 -33 16 -210 16 -191
0 -204 -1 -214 -19z"/>
<path d="M1750 470 l0 -100 100 0 100 0 0 100 0 100 -100 0 -100 0 0 -100z"/>
<path d="M1434 347 c-2 -7 -3 -76 -2 -152 l3 -140 150 0 150 0 0 150 0 150
-148 3 c-115 2 -149 0 -153 -11z"/>
</g>
</svg>
